<svg xmlns="http://www.w3.org/2000/svg" width="178.469" height="14.755" viewBox="0 0 178.469 14.755">
  <g id="Logo" transform="translate(-15.414 -27.193)">
    <path id="Path_9" data-name="Path 9" d="M28.5,37.852c0,2.424-1.686,4.233-5.672,4.233H16.361c-.636,0-.923-.185-.945-.618-.022-.371.124-.636.658-1.377.371-.512.389-1.192.389-2.631V32.322c0-1.417-.022-2.1-.389-2.631-.534-.741-.679-.985-.658-1.355.022-.432.309-.636.945-.636h5.425c3.143,0,5.447,1.254,5.447,3.677a3.013,3.013,0,0,1-2.507,3.187C27.044,34.644,28.5,36.188,28.5,37.852Zm-8.139-5.345c0,.8.247,1.17.883,1.17h.287a1.8,1.8,0,0,0,1.7-2.013,1.808,1.808,0,0,0-1.7-2.035h-.287c-.636,0-.883.389-.883,1.17Zm3.884,5.345a2.2,2.2,0,0,0-2.362-2.3h-.349c-.945,0-1.17.185-1.17,1.192v2.2c0,1.028.225,1.214,1.17,1.214h.349A2.209,2.209,0,0,0,24.249,37.852Z" transform="translate(0 -0.323)"/>
    <path id="Path_10" data-name="Path 10" d="M58.474,41.158c-.022.432-.309.618-.945.618H53.583c-.636,0-.923-.185-.967-.618-.022-.371.124-.636.658-1.377.371-.512.389-1.192.389-2.631V32.856c0-1.439-.022-2.115-.389-2.631-.534-.741-.679-1.006-.658-1.377.04-.432.327-.7.967-.9.618-.207,1.828-.556,2.057-.636,1.17-.327,1.788.225,1.788,1.4V37.15c0,1.439.022,2.115.389,2.631C58.35,40.522,58.514,40.787,58.474,41.158Z" transform="translate(-23.683 -0.013)"/>
    <path id="Path_11" data-name="Path 11" d="M81.4,47.985c-.04.883-1.17,1.562-2.322,1.562-1.519,0-2.3-.432-2.631-1.315a2.925,2.925,0,0,1-2.711,1.315c-2.22,0-3.535-1.152-3.535-2.834,0-2.732,2.507-3.535,6.1-3.535v-.287c0-1.152-.062-2.053-.883-2.176A1.168,1.168,0,0,0,74,41.579c-.389,1.254-1.192,1.541-2.1,1.232a1.284,1.284,0,0,1-.719-1.748c.6-1.562,2.692-1.933,4.437-1.933,2.834,0,4.418,1.275,4.418,4.273v.411c0,1.417-.062,2.631.389,3.1C80.948,47.451,81.442,47.367,81.4,47.985Zm-4.952-2.9c0-.658-.265-.679-.967-.556A1.717,1.717,0,0,0,74,46.154c-.04.865.349,1.479,1.254,1.479.821,0,1.192-.658,1.192-1.726C76.446,45.5,76.446,45.332,76.446,45.085Z" transform="translate(-34.879 -7.6)"/>
    <path id="Path_12" data-name="Path 12" d="M113.3,41.158c-.04.432-.327.618-.967.618h-3.946c-.636,0-.923-.185-.967-.618-.022-.371.124-.636.679-1.377.371-.512.389-1.192.389-2.631v-.2c0-1.417.022-3.227-1.457-3.227-.923,0-1.4.719-1.4,1.973V37.15c0,1.439.022,2.115.389,2.631.534.741.7,1.006.658,1.377-.022.432-.309.618-.945.618h-3.946c-.636,0-.923-.185-.967-.618-.022-.371.124-.636.658-1.377.371-.512.411-1.192.411-2.609V32.856c0-1.439-.04-2.115-.411-2.631-.534-.741-.679-1.006-.658-1.377.04-.432.327-.7.967-.9.618-.207,1.828-.556,2.053-.636,1.192-.327,1.788.225,1.788,1.4v4.131a4.233,4.233,0,0,1,2.979-1.294,3.264,3.264,0,0,1,3.615,3.39v2.22c0,1.439.022,2.115.389,2.631C113.162,40.522,113.326,40.787,113.3,41.158Z" transform="translate(-54.376 -0.013)"/>
    <path id="Path_13" data-name="Path 13" d="M161.71,38.205c-.371,2.856-2.671,3.739-5.9,3.739-4.952,0-7.478-3.227-6-4.745a1.824,1.824,0,0,1,2.878.349c.494.985.865,2.384,3.063,2.529.8.062,1.7-.084,1.871-1.006.145-.8-.534-1.5-1.355-1.933-1.973-1.006-6.595-2.507-6.144-6.206.371-3.165,2.918-3.862,5.857-3.721,4.705.247,6.348,3.306,4.829,4.6a1.877,1.877,0,0,1-2.754-.371c-.618-.883-.534-2.344-2.445-2.384-1.09,0-1.788.556-1.664,1.541.124.945,1.006,1.581,3.125,2.547C160.456,34.691,162.037,35.76,161.71,38.205Z" transform="translate(-85.298)"/>
    <path id="Path_14" data-name="Path 14" d="M197.855,41.158c-.022.432-.327.618-.945.618h-3.7c-.945,0-1.457-.145-1.377-.8.084-.679.719-.719.411-1.355a13.507,13.507,0,0,0-1.028-1.726l-.556-.865-.658.618a3.518,3.518,0,0,0,.389,2.137c.534.741.679,1.006.658,1.377-.022.432-.327.618-.945.618h-3.964c-.636,0-.923-.185-.945-.618-.022-.371.124-.636.658-1.377.371-.512.389-1.192.389-2.631V32.856c0-1.439-.022-2.115-.389-2.631-.534-.741-.679-1.006-.658-1.377.022-.432.331-.7.945-.9.636-.207,1.849-.556,2.075-.636,1.17-.327,1.788.225,1.788,1.4v6.8l1.275-1.254c1.108-1.09.6-1.337.636-1.973.022-.309.185-.574.883-.574h2.816c.556,0,.821.225.821.574,0,1.006-1.642.967-3.2,2.3l-.04.062,1.7,2.507a21.351,21.351,0,0,0,1.995,2.649C197.568,40.417,197.877,40.7,197.855,41.158Z" transform="translate(-108.09 -0.013)"/>
    <path id="Path_15" data-name="Path 15" d="M231.568,47.985c-.04.883-1.17,1.562-2.322,1.562-1.519,0-2.3-.432-2.631-1.315a2.925,2.925,0,0,1-2.711,1.315c-2.22,0-3.535-1.152-3.535-2.834,0-2.732,2.507-3.535,6.1-3.535v-.287c0-1.152-.062-2.053-.883-2.176a1.168,1.168,0,0,0-1.417.865c-.389,1.254-1.192,1.541-2.1,1.232a1.284,1.284,0,0,1-.719-1.748c.6-1.562,2.692-1.933,4.437-1.933,2.834,0,4.418,1.275,4.418,4.273v.411c0,1.417-.062,2.631.389,3.1C231.118,47.451,231.612,47.367,231.568,47.985Zm-4.949-2.9c0-.658-.269-.679-.967-.556a1.717,1.717,0,0,0-1.479,1.624c-.04.865.349,1.479,1.254,1.479.821,0,1.192-.658,1.192-1.726C226.62,45.5,226.62,45.332,226.62,45.085Z" transform="translate(-130.485 -7.6)"/>
    <path id="Path_16" data-name="Path 16" d="M255.241,45.463a3.11,3.11,0,0,1-3.35-3.474V37h-.7a.792.792,0,0,1-.8-.8v-.185a.8.8,0,0,1,.8-.8h.411c1.809,0,.945-2.485,2.384-2.485h.821c.679,0,.821.327.821.967v1.519h1.7a.818.818,0,0,1,.8.8v.185a.806.806,0,0,1-.8.8h-1.7v4.851c0,1.108.883,1.4,1.849.865.349-.185.719-.225.945.04C259.125,43.573,257.523,45.463,255.241,45.463Z" transform="translate(-149.597 -3.519)"/>
    <path id="Path_17" data-name="Path 17" d="M284.455,46.94a4.5,4.5,0,0,1-4.436,2.587c-2.856,0-5.69-1.624-5.814-5.076-.1-3.535,2.631-5.465,5.712-5.341a4.463,4.463,0,0,1,4.622,3.862c.145,1.377-.1,1.911-1.417,1.911h-5.076c.494,2.631,3.924,3.041,5.588,1.417C284.23,45.727,284.8,46.181,284.455,46.94Zm-6.391-4.295c-.062.225.04.432.225.432h2.405c.494,0,.719-.349.556-.967a1.481,1.481,0,0,0-1.642-1.337C278.682,40.836,278.249,41.781,278.064,42.646Z" transform="translate(-164.757 -7.584)"/>
    <path id="Path_18" data-name="Path 18" d="M316,36.74c0,3.081-1.828,5.3-4.789,5.218a3.981,3.981,0,0,1-3.1-1.664c-.371.534-1.315,1.664-2.057,1.664-.389,0-.843-.062-1.007-.574a36.414,36.414,0,0,1-.062-4.233V32.856c0-1.439-.022-2.115-.389-2.631-.534-.741-.679-1.006-.658-1.377.04-.432.327-.7.967-.9.618-.207,1.828-.556,2.053-.636,1.17-.327,1.788.225,1.788,1.4v3.782a3.714,3.714,0,0,1,2.467-.945C314.172,31.438,316,33.659,316,36.74Zm-3.822,0c0-1.809-.636-3.125-1.889-3.125-1.275,0-1.911,1.315-1.911,3.125s.636,3.143,1.911,3.143C311.541,39.883,312.177,38.549,312.177,36.74Z" transform="translate(-183.686 -0.013)"/>
    <path id="Path_19" data-name="Path 19" d="M350.588,44.32c0,3.2-2.176,5.218-5.588,5.218-3.43,0-5.61-2.013-5.61-5.218s2.176-5.2,5.61-5.2C348.412,39.12,350.588,41.115,350.588,44.32Zm-3.819,0c0-1.871-.6-3.245-1.766-3.245-1.192,0-1.788,1.377-1.788,3.245s.6,3.267,1.788,3.267C346.174,47.586,346.77,46.191,346.77,44.32Z" transform="translate(-206.259 -7.593)"/>
    <path id="Path_20" data-name="Path 20" d="M383.388,47.985c-.04.883-1.17,1.562-2.322,1.562-1.519,0-2.3-.432-2.631-1.315a2.925,2.925,0,0,1-2.711,1.315c-2.22,0-3.535-1.152-3.535-2.834,0-2.732,2.507-3.535,6.1-3.535v-.287c0-1.152-.062-2.053-.883-2.176a1.168,1.168,0,0,0-1.417.865c-.389,1.254-1.192,1.541-2.1,1.232a1.284,1.284,0,0,1-.719-1.748c.6-1.562,2.692-1.933,4.437-1.933,2.834,0,4.418,1.275,4.418,4.273v.411c0,1.417-.062,2.631.389,3.1C382.938,47.451,383.428,47.367,383.388,47.985Zm-4.952-2.9c0-.658-.269-.679-.967-.556a1.717,1.717,0,0,0-1.479,1.624c-.04.865.349,1.479,1.254,1.479.821,0,1.192-.658,1.192-1.726Z" transform="translate(-227.141 -7.6)"/>
    <path id="Path_21" data-name="Path 21" d="M413.965,42.391a1.705,1.705,0,0,1-2.834.164c-.556-.741-.432-1.417-1.13-1.417-.512,0-.636.389-.658,1.046v2.529c0,1.439.022,2.22.389,2.631.574.6.865.985.8,1.377-.062.411-.309.618-.945.618H405.5c-.636,0-.923-.185-.966-.618-.022-.371.124-.636.658-1.377.371-.512.389-1.192.389-2.569,0-1.4-.022-2.158-.389-2.671-.534-.741-.679-1.006-.658-1.377.04-.432.331-.7.966-.9.618-.207,1.828-.574,2.053-.636,1.028-.287,1.624.1,1.748.985a3.236,3.236,0,0,1,2.467-1.068C413.965,39.1,414.786,40.913,413.965,42.391Z" transform="translate(-247.733 -7.576)"/>
    <path id="Path_22" data-name="Path 22" d="M443.991,41.158c-.022.432-.309.618-.945.618h-2.238c-.883,0-1.355-.287-1.541-.865a3.8,3.8,0,0,1-2.529,1.046c-2.979.084-4.789-2.137-4.789-5.218s1.81-5.3,4.789-5.2a3.656,3.656,0,0,1,2.445.945,3.728,3.728,0,0,0-.389-2.26c-.534-.741-.679-1.006-.658-1.377.04-.432.327-.7.967-.9.618-.207,1.828-.556,2.057-.636,1.17-.327,1.788.225,1.788,1.4V37.15c0,1.439.022,2.115.389,2.631C443.868,40.522,444.031,40.787,443.991,41.158Zm-4.437-4.418c0-1.809-.636-3.125-1.889-3.125-1.275,0-1.911,1.315-1.911,3.125s.636,3.143,1.911,3.143C438.915,39.883,439.555,38.549,439.555,36.74Z" transform="translate(-265.187 -0.013)"/>
    <path id="Path_23" data-name="Path 23" d="M475.98,47c-.451,1.788-2.322,2.507-4.6,2.507-4.295,0-5.937-2.424-4.684-3.779a1.293,1.293,0,0,1,2.2.534,2.1,2.1,0,0,0,2.075,1.6c.618.084,1.581.062,1.726-.574.185-.781-1.152-1.006-2.711-1.686-1.479-.658-3.783-1.766-2.9-4.458.618-1.828,2.609-2.158,4.56-2.057,3.307.185,4.4,2.362,3.412,3.535a1.365,1.365,0,0,1-2.1-.247c-.392-.679-.309-1.6-1.642-1.686-.574-.062-1.152.084-1.254.618-.1.556.556.945,2.115,1.562C474.664,43.88,476.616,44.454,475.98,47Z" transform="translate(-287.045 -7.564)"/>
    <path id="Path_24" data-name="Path 24" d="M499.931,59.409a1.9,1.9,0,0,1-3.8,0,1.9,1.9,0,0,1,3.8,0Z" transform="translate(-306.047 -19.333)"/>
  </g>
</svg>
